PathFileType	4	(X/Y/Z)	\\147.46.242.158\로컬 디스크 (e)\MOCAP Data\Iguana Capture\iguana\Project 2\Capture day 7\Session 2\Take13.trc
DataRate	CameraRate	NumFrames	NumMarkers	Units	OrigDataRate	OrigDataStartFrame	OrigNumFrames
120.0	120.0	11	23	mm	120.0	167	7542
Frame#	Time	ana:head1			ana:head2			ana:bone1			ana:bone2			ana:bone3			ana:tail1			ana:tail2			ana:tail3			ana:tail4			ana:Rforefoot1			ana:Rforefoot2			ana:Rforefoot3			ana:Lforefoot1			ana:Lforefoot2			ana:Lforefoot3			ana:RhindLeg1			ana:RhindLeg2			ana:RhindLeg3			ana:RhindLeg4			ana:LhindLeg1			ana:LhindLeg2			ana:LhindLeg3			ana:LhindLeg4			
		X1	Y1	Z1	X2	Y2	Z2	X3	Y3	Z3	X4	Y4	Z4	X5	Y5	Z5	X6	Y6	Z6	X7	Y7	Z7	X8	Y8	Z8	X9	Y9	Z9	X10	Y10	Z10	X11	Y11	Z11	X12	Y12	Z12	X13	Y13	Z13	X14	Y14	Z14	X15	Y15	Z15	X16	Y16	Z16	X17	Y17	Z17	X18	Y18	Z18	X19	Y19	Z19	X20	Y20	Z20	X21	Y21	Z21	X22	Y22	Z22	X23	Y23	Z23	

4586	38.208	407.67609	174.77991	47.90915	408.52124	185.72348	48.10154	413.37717	206.09573	40.24725	418.64185	234.55115	37.73208	409.69962	267.02814	33.50655	394.05423	295.33438	27.73615	373.13007	325.36237	17.15121	347.40909	356.74020	7.98693	324.14551	391.23080	3.90650	397.87900	210.36688	24.24342	392.82327	222.96187	16.72796	402.29022	219.99068	-1.26898	423.27496	198.52303	22.65046	433.30981	194.46542	14.85762	428.47375	183.01869	2.16748	402.73401	262.62723	29.46082	391.29718	252.18629	35.99698	386.38562	272.32178	28.55601	378.76471	266.21140	24.32481	416.18533	273.80734	25.27048	428.70776	286.17871	16.77573	423.28259	302.25702	3.35718	431.90552	295.24527	1.85739	
4587	38.217	408.12854	174.60962	48.18664	408.90237	185.56863	48.32808	413.78937	205.89786	40.34999	419.10956	234.24554	37.70607	410.17783	266.60727	33.40586	394.20621	294.95285	27.85832	373.21780	324.97256	17.21451	347.64423	356.39380	8.02252	324.39191	390.81177	3.88105	398.53607	209.80267	24.16841	393.34985	222.78345	16.95000	402.42676	219.91827	-1.33551	423.58597	198.32533	22.53018	433.61996	194.33710	14.68900	428.55716	183.08975	2.07615	403.28928	261.85190	29.51480	392.62152	250.75574	36.07122	385.54532	269.49826	28.09853	378.78671	262.02322	25.29317	416.36777	273.54120	25.19764	428.74808	286.05914	16.77763	423.17920	302.17929	3.40400	431.85773	295.23782	1.81525	
4588	38.225	408.55841	174.48476	48.49793	409.21814	185.42526	48.57831	414.13104	205.74651	40.44014	419.48349	233.96729	37.63226	410.50290	266.24847	33.30569	394.24271	294.54291	27.87866	373.24518	324.54739	17.18322	347.80933	356.08804	8.01013	324.59146	390.44611	3.86247	399.33780	209.16565	24.05057	393.95682	222.49133	17.00624	402.53455	219.85294	-1.38274	423.89487	198.17082	22.48480	433.88071	194.21864	14.56012	428.60748	183.12141	2.00786	403.63043	261.24188	29.38515	393.80353	249.38168	35.98544	384.42291	266.35934	27.61299	378.94312	257.79147	26.23139	416.43149	273.25513	25.03507	428.72571	285.96759	16.76530	423.06879	302.13031	3.42226	431.81522	295.21555	1.77891	
4589	38.233	408.95660	174.37268	48.80909	409.51291	185.29268	48.83385	414.39639	205.62631	40.48642	419.74893	233.76167	37.56409	410.66620	265.92438	33.20706	394.12491	294.11728	27.77297	373.18805	324.14529	17.06907	347.91522	355.83597	7.95830	324.74997	390.16159	3.85174	399.99896	208.55368	23.96731	394.50208	222.14868	16.98806	402.60721	219.73524	-1.37336	424.18076	198.03188	22.49733	434.08191	194.12781	14.44151	428.64606	183.13986	1.96719	403.76517	260.72922	29.14559	394.79092	248.08374	35.76364	383.24261	262.95139	27.29615	379.26691	253.70967	26.99057	416.37482	272.97406	24.81320	428.66687	285.91821	16.74240	422.97736	302.10510	3.40173	431.81732	295.16327	1.79465	
4590	38.242	409.28204	174.25272	49.09499	409.79886	185.23996	49.10067	414.57391	205.49689	40.46131	419.90314	233.60965	37.48576	410.67340	265.63208	33.11012	393.87680	293.66211	27.58661	373.06000	323.71823	16.88685	347.96106	355.62369	7.87242	324.87564	389.95847	3.85383	400.52417	208.09613	23.92807	394.94684	221.90988	16.96127	402.65448	219.51019	-1.32139	424.43982	197.90297	22.54778	434.24228	194.06575	14.32641	428.67636	183.16025	1.93988	403.71533	260.31348	28.76224	395.61652	246.85164	35.42125	382.14136	259.53751	26.98172	379.76489	249.78900	27.33734	416.23117	272.70038	24.57650	428.57745	285.84241	16.68352	422.91226	302.09106	3.35303	431.83301	295.10629	1.82352	
4591	38.250	409.60275	174.13663	49.41803	410.07840	185.19052	49.36005	414.66940	205.35619	40.37641	419.98349	233.49380	37.42976	410.60852	265.35611	32.99361	393.56512	293.19385	27.35817	372.86777	323.32568	16.70104	347.94592	355.43234	7.77651	324.95865	389.84015	3.87583	400.76569	207.80899	23.96373	395.23843	221.68063	16.98413	402.68225	219.25246	-1.22438	424.64725	197.78134	22.61515	434.35812	194.02319	14.21715	428.70279	183.18243	1.91895	403.47409	259.92166	28.47961	396.25375	245.73778	34.93882	381.21231	256.25003	26.44700	380.21860	246.19299	27.06090	416.05350	272.43042	24.35294	428.46283	285.73703	16.61060	422.86398	302.07361	3.30001	431.86295	295.04034	1.87535	
4592	38.258	409.87042	174.03430	49.69880	410.32803	185.12265	49.59499	414.71548	205.19901	40.29496	419.98749	233.39697	37.40171	410.46335	265.10580	32.85833	393.21912	292.72659	27.13380	372.62180	323.00366	16.55206	347.87967	355.24802	7.68655	325.00827	389.76895	3.89849	400.79425	207.70117	24.06827	395.34076	221.48701	17.07823	402.57986	218.93005	-1.08769	424.79980	197.65108	22.69401	434.44589	193.97371	14.14793	428.72171	183.20497	1.89958	403.10431	259.62402	28.29210	396.67657	244.73070	34.33656	380.49078	253.13870	25.46247	380.56293	242.96486	26.11268	415.87170	272.19394	24.20930	428.32446	285.61560	16.54436	422.82996	302.04446	3.25158	431.90277	294.96704	1.93970	
4593	38.267	410.09464	173.93736	49.94094	410.52573	185.00555	49.79216	414.73099	205.03432	40.26665	419.91455	233.30849	37.40395	410.24805	264.88107	32.69742	392.86328	292.29712	26.93385	372.34695	322.72351	16.41980	347.76120	355.11597	7.61186	325.03049	389.72195	3.92016	400.72427	207.69524	24.17590	395.37253	221.37093	17.18582	402.34409	218.48427	-0.89298	424.92023	197.50755	22.80262	434.50519	193.91920	14.12494	428.72424	183.23705	1.86137	402.66864	259.36786	28.16508	396.77933	243.84911	33.59124	379.92096	250.31934	24.01566	380.66226	240.14264	24.43060	415.68027	271.99103	24.16305	428.14606	285.48547	16.50640	422.80096	302.00943	3.23031	431.94244	294.89774	2.00324	
4594	38.275	410.24557	173.89209	50.16373	410.66592	184.82532	49.95726	414.72522	204.86426	40.30743	419.75998	233.22894	37.43941	409.97095	264.67041	32.51353	392.50092	291.96378	26.74547	372.10446	322.48056	16.30352	347.61673	355.03537	7.54425	325.03006	389.69037	3.93657	400.56891	207.70798	24.32337	395.38925	221.22780	17.26136	402.12732	218.15096	-0.71697	425.01636	197.34502	22.93537	434.54413	193.85471	14.14145	428.71848	183.27425	1.80887	402.19339	259.19199	28.11805	396.59973	242.92935	32.67936	379.44180	247.74962	22.06361	380.37640	237.71341	22.14456	415.47253	271.80600	24.16032	427.91360	285.35751	16.49183	422.76672	301.96539	3.23928	431.94354	294.86749	2.01732	
4595	38.283	410.36066	173.79970	50.37011	410.74390	184.59557	50.10315	414.69510	204.69891	40.44246	419.55331	233.11453	37.50437	409.64490	264.45483	32.33760	392.15887	291.71851	26.57193	371.84561	322.25443	16.12241	347.51437	355.04681	7.49883	325.01596	389.66776	3.94577	400.37762	207.71854	24.50765	395.42020	221.12398	17.30705	401.95279	217.91934	-0.56828	425.09897	197.15656	23.09534	434.57098	193.79434	14.18521	428.68149	183.28046	1.74600	401.75092	259.00241	28.02445	396.23053	242.06836	31.65009	378.94769	245.61974	19.89577	379.83640	235.65288	19.50288	415.20236	271.62418	24.13502	427.62518	285.23520	16.49874	422.72485	301.91525	3.25807	431.91293	294.87415	1.98681	
4596	38.292	410.42990	173.67796	50.56734	410.78287	184.37453	50.26175	414.61374	204.52817	40.62142	419.28189	232.98158	37.55727	409.24945	264.25858	32.14251	391.82690	291.53601	26.35277	371.66376	322.03864	15.90300	347.48383	355.12048	7.45971	324.99841	389.65283	3.94774	400.13113	207.72348	24.73959	395.41275	221.04233	17.32999	401.78824	217.78268	-0.46629	425.15271	196.95749	23.26185	434.57697	193.73769	14.23674	428.64133	183.29759	1.66416	401.35565	258.74368	27.83819	395.75247	241.25414	30.58315	378.48975	243.87682	17.67147	379.20636	233.91853	16.87568	414.88275	271.41965	24.06064	427.30344	285.06183	16.50369	422.67468	301.85852	3.29039	431.83612	294.91879	1.89876	
